<mxfile host="app.diagrams.net" modified="2023-01-12T07:57:30.396Z" agent="5.0 (Macintosh; Intel Mac OS X 10_15_7) AppleWebKit/537.36 (KHTML, like Gecko) Chrome/109.0.0.0 Safari/537.36" version="20.8.3" etag="YbdmPFqHz4tL5wFDF52A" type="github">
  <diagram id="SA7pkDzyv5exoeGCXXxC" name="Page-1">
    <mxGraphModel dx="932" dy="512" grid="1" gridSize="10" guides="1" tooltips="1" connect="1" arrows="1" fold="1" page="1" pageScale="1" pageWidth="827" pageHeight="1169" math="0" shadow="0">
      <root>
        <mxCell id="0" />
        <mxCell id="1" parent="0" />
        <mxCell id="r2GEcndordVYV5ExmnWq-8" style="edgeStyle=orthogonalEdgeStyle;rounded=0;orthogonalLoop=1;jettySize=auto;html=1;exitX=1;exitY=0.5;exitDx=0;exitDy=0;entryX=0;entryY=0.5;entryDx=0;entryDy=0;" edge="1" parent="1" source="r2GEcndordVYV5ExmnWq-1" target="r2GEcndordVYV5ExmnWq-2">
          <mxGeometry relative="1" as="geometry" />
        </mxCell>
        <mxCell id="r2GEcndordVYV5ExmnWq-1" value="" style="rounded=0;whiteSpace=wrap;html=1;" vertex="1" parent="1">
          <mxGeometry x="40" y="185" width="120" height="60" as="geometry" />
        </mxCell>
        <mxCell id="r2GEcndordVYV5ExmnWq-9" style="edgeStyle=orthogonalEdgeStyle;rounded=0;orthogonalLoop=1;jettySize=auto;html=1;exitX=1;exitY=0.5;exitDx=0;exitDy=0;entryX=0;entryY=0.5;entryDx=0;entryDy=0;" edge="1" parent="1" source="r2GEcndordVYV5ExmnWq-2" target="r2GEcndordVYV5ExmnWq-3">
          <mxGeometry relative="1" as="geometry" />
        </mxCell>
        <mxCell id="r2GEcndordVYV5ExmnWq-2" value="" style="rounded=0;whiteSpace=wrap;html=1;" vertex="1" parent="1">
          <mxGeometry x="260" y="150" width="120" height="130" as="geometry" />
        </mxCell>
        <mxCell id="r2GEcndordVYV5ExmnWq-3" value="" style="rounded=0;whiteSpace=wrap;html=1;" vertex="1" parent="1">
          <mxGeometry x="480" y="150" width="120" height="130" as="geometry" />
        </mxCell>
        <mxCell id="r2GEcndordVYV5ExmnWq-4" value="Событие" style="text;strokeColor=none;align=center;fillColor=none;html=1;verticalAlign=middle;whiteSpace=wrap;rounded=0;" vertex="1" parent="1">
          <mxGeometry x="70" y="195" width="60" height="30" as="geometry" />
        </mxCell>
        <mxCell id="r2GEcndordVYV5ExmnWq-6" value="Исполнитель 1 (ВМ 1)" style="text;strokeColor=none;align=center;fillColor=none;html=1;verticalAlign=middle;whiteSpace=wrap;rounded=0;" vertex="1" parent="1">
          <mxGeometry x="290" y="165" width="60" height="30" as="geometry" />
        </mxCell>
        <mxCell id="r2GEcndordVYV5ExmnWq-7" value="Исполнитель 2 (ВМ 2)" style="text;strokeColor=none;align=center;fillColor=none;html=1;verticalAlign=middle;whiteSpace=wrap;rounded=0;" vertex="1" parent="1">
          <mxGeometry x="510" y="165" width="60" height="30" as="geometry" />
        </mxCell>
        <mxCell id="r2GEcndordVYV5ExmnWq-10" value="Задание 1&lt;br&gt;Шаг 1&lt;br&gt;Шаг 2&lt;br&gt;Шаг 3" style="text;strokeColor=none;align=left;fillColor=none;html=1;verticalAlign=middle;whiteSpace=wrap;rounded=0;" vertex="1" parent="1">
          <mxGeometry x="280" y="200" width="80" height="70" as="geometry" />
        </mxCell>
        <mxCell id="r2GEcndordVYV5ExmnWq-11" value="Задание 2&lt;br&gt;Шаг 1&lt;br&gt;Шаг 2&lt;br&gt;Шаг 3" style="text;strokeColor=none;align=left;fillColor=none;html=1;verticalAlign=middle;whiteSpace=wrap;rounded=0;" vertex="1" parent="1">
          <mxGeometry x="500" y="200" width="80" height="70" as="geometry" />
        </mxCell>
      </root>
    </mxGraphModel>
  </diagram>
</mxfile>
